<?xml version="1.0" encoding="UTF-8"?>
<svg version="1.1" xmlns="http://www.w3.org/2000/svg" width="512" height="512">
<path d="M0 0 C0.93946976 -0.00137466 1.87893951 -0.00274933 2.84687805 -0.00416565 C3.87042892 -0.00057037 4.8939798 0.0030249 5.94854736 0.00672913 C7.0317778 0.0065831 8.11500824 0.00643707 9.23106384 0.00628662 C12.81301879 0.00698352 16.3949218 0.01476557 19.97686768 0.02259827 C22.45979789 0.02446324 24.94272847 0.02588677 27.42565918 0.02688599 C33.29396077 0.03031457 39.16224317 0.03819682 45.03053689 0.04823548 C52.36811289 0.06051478 59.70568999 0.06588155 67.04327393 0.07142639 C80.13052327 0.08215276 93.21775613 0.09922176 106.30499268 0.12025452 C106.30499268 5.07025452 106.30499268 10.02025452 106.30499268 15.12025452 C105.03236572 15.12834137 103.75973877 15.13642822 102.44854736 15.14476013 C90.44257639 15.22231744 78.43671739 15.31008104 66.43089294 15.4077816 C60.25890339 15.45768127 54.08693042 15.504012 47.91485596 15.54212952 C41.95606913 15.57906207 35.99742327 15.6254439 30.03875732 15.67831802 C27.76786782 15.69681959 25.49694815 15.71194311 23.22601318 15.72359848 C20.03995394 15.74053334 16.85421456 15.76958621 13.66827393 15.80140686 C12.26672813 15.80464714 12.26672813 15.80464714 10.83686829 15.80795288 C2.69562123 15.91150684 -4.11850415 16.88894517 -10.69500732 22.12025452 C-22.16641914 34.86626764 -18.14728283 51.14079505 -18.69500732 68.12025452 C139.70499268 68.12025452 298.10499268 68.12025452 461.30499268 68.12025452 C462.51664202 44.55454573 462.51664202 44.55454573 454.30499268 23.12025452 C447.89574109 17.35192809 442.14038546 16.00514331 433.60038185 15.98158932 C432.48071577 15.97611487 431.36104968 15.97064043 430.20745432 15.96500009 C428.98760981 15.96402199 427.76776531 15.96304388 426.51095581 15.96203613 C425.20725961 15.95709816 423.90356341 15.95216018 422.56036127 15.94707257 C418.94822003 15.9335223 415.33608818 15.92608214 411.72392821 15.91964591 C407.82623559 15.91162826 403.9285624 15.89793519 400.03088379 15.88493347 C393.28003169 15.86319007 386.5291776 15.84503778 379.77830887 15.82932854 C370.01770099 15.80661045 360.25711467 15.77847031 350.49652509 15.74900926 C334.6603923 15.70135712 318.82425068 15.65808649 302.98809814 15.61756897 C287.60527867 15.57820194 272.22246702 15.53677282 256.83966064 15.49256897 C255.89137239 15.4898447 254.94308414 15.48712043 253.96605988 15.4843136 C249.20874893 15.47063392 244.4514381 15.45691369 239.69412732 15.44317329 C200.23109871 15.32924587 160.76805317 15.22250122 121.30499268 15.12025452 C121.30499268 10.17025452 121.30499268 5.22025452 121.30499268 0.12025452 C162.64820431 0.0289721 203.99140163 -0.04180072 245.33469417 -0.0840068 C250.21745334 -0.08900953 255.10021231 -0.09418683 259.98297119 -0.09947205 C261.44105369 -0.10104591 261.44105369 -0.10104591 262.92859241 -0.10265157 C278.66071768 -0.12004906 294.39278438 -0.15158314 310.12487493 -0.18835667 C326.27167158 -0.22578432 342.4184376 -0.2479852 358.56527585 -0.25609946 C368.52593116 -0.26158344 378.48642092 -0.27889399 388.44702526 -0.31141135 C395.28064499 -0.33258175 402.11417934 -0.33893981 408.94782946 -0.33375099 C412.88844921 -0.33119314 416.82877999 -0.33506901 420.76934814 -0.35656738 C424.38271891 -0.37613598 427.99560837 -0.37694951 431.60900202 -0.36334106 C433.52358512 -0.36086989 435.43816317 -0.37802931 437.35266286 -0.39607072 C449.06467861 -0.31548524 457.6117478 2.50251941 466.07452393 10.68275452 C475.19732658 20.6523322 477.47358448 30.69165349 477.43362713 43.94555378 C477.43538017 44.69437339 477.4371332 45.44319301 477.43893936 46.21470413 C477.44357659 48.71394549 477.44113976 51.2131281 477.43870544 53.71237183 C477.44057456 55.52634929 477.44287567 57.34032635 477.44557077 59.15430278 C477.45168265 64.13168831 477.45155589 69.10905702 477.45037639 74.08644545 C477.45017223 79.45739286 477.45569257 84.82833489 477.46043396 90.19927979 C477.46873757 100.71894773 477.47148866 111.23861008 477.47204634 121.75828103 C477.47252161 130.30919874 477.47457689 138.8601146 477.47774696 147.41103172 C477.4865525 171.65655768 477.49116646 195.9020792 477.49041649 220.14760677 C477.49035656 222.10790407 477.49035656 222.10790407 477.49029541 224.10780334 C477.49023409 226.07049495 477.49023409 226.07049495 477.49017153 228.0728369 C477.48976502 249.28157801 477.49933611 270.49030137 477.51343378 291.69903735 C477.52779627 313.47807399 477.53470404 335.25710198 477.53384 357.03614348 C477.533508 369.26261659 477.53625639 381.48907109 477.54701805 393.71553993 C477.55612134 404.12455258 477.55829968 414.53353818 477.55150863 424.94255308 C477.54824266 430.25221401 477.54818958 435.56182304 477.55686188 440.87147903 C477.56472423 445.73529544 477.5632981 450.59901876 477.55457775 455.46283289 C477.55304219 457.21917127 477.554861 458.97551659 477.56043782 460.73184679 C477.60616433 476.15856262 477.19672169 490.09011573 466.11749268 501.93275452 C459.23490232 508.43553637 451.44476275 512.24712238 441.9557991 512.24330235 C440.31884878 512.24628892 440.31884878 512.24628892 438.64882874 512.24933583 C436.85117841 512.24496656 436.85117841 512.24496656 435.01721191 512.24050903 C433.74380943 512.24136346 432.47040695 512.24221788 431.15841651 512.2430982 C427.62155311 512.24533699 424.08471993 512.24133026 420.54786038 512.23632014 C416.7346708 512.23200702 412.92148296 512.23346268 409.10829163 512.23422241 C402.50090378 512.2347471 395.8935258 512.23160605 389.28614044 512.22598457 C379.73293692 512.21786212 370.17973817 512.21525359 360.62653157 512.21399658 C345.12758491 512.21180724 329.62864351 512.20515033 314.12969971 512.19569397 C299.07273383 512.18651682 284.01576938 512.17943746 268.95880127 512.17518616 C268.03089654 512.17492343 267.10299181 512.17466071 266.14696875 512.17439003 C261.49200514 512.173085 256.83704152 512.17182129 252.18207788 512.17057812 C213.5563791 512.16020917 174.93068632 512.14251977 136.30499268 512.12025452 C136.30499268 507.17025452 136.30499268 502.22025452 136.30499268 497.12025452 C137.85919922 497.11694437 139.41340576 497.11363422 141.01470947 497.11022377 C177.90906984 497.03120478 214.8033931 496.94198435 251.69769794 496.84020291 C256.23883374 496.82768405 260.77996977 496.81525127 265.32110596 496.8028717 C266.67719265 496.79917271 266.67719265 496.79917271 268.06067502 496.795399 C282.69870961 496.75567618 297.3367519 496.72292672 311.97480893 496.6927547 C326.99499558 496.6616398 342.01514947 496.62303021 357.0352993 496.57746446 C366.30339047 496.54958458 375.57145769 496.52754935 384.83957952 496.51299201 C391.19522292 496.50244924 397.55081994 496.48462606 403.9064284 496.46108748 C407.57316506 496.44772208 411.23983672 496.43755747 414.90659904 496.43604088 C418.88443086 496.43431161 422.86211384 496.41724683 426.83990479 496.39872742 C427.99555939 496.40066215 429.15121399 496.40259689 430.34188843 496.40459025 C439.0571437 496.34386238 446.23516937 495.7439776 453.30499268 490.12025452 C459.41485893 483.33151424 460.42345852 477.28448786 460.44365788 468.27557564 C460.44650061 467.6082568 460.44934335 466.94093796 460.45227223 466.25339734 C460.46058589 464.02053738 460.46188573 461.78772956 460.46321106 459.55485535 C460.46776997 457.94078448 460.47276173 456.32671479 460.47814941 454.71264648 C460.49172106 450.27003415 460.49912917 445.8274294 460.50556417 441.38480178 C460.5137017 436.5231569 460.52757086 431.66152778 460.54071712 426.79989433 C460.56538267 417.36045415 460.58497554 407.92101022 460.60280236 398.48155492 C460.62363877 387.56415341 460.65077395 376.64677356 460.67791748 365.72938538 C460.74647522 336.90135402 460.80645739 308.07330278 460.86749268 279.24525452 C461.08405518 182.65837952 461.08405518 182.65837952 461.30499268 84.12025452 C302.90499268 84.12025452 144.50499268 84.12025452 -18.69500732 84.12025452 C-18.57125732 148.47025452 -18.44750732 212.82025452 -18.32000732 279.12025452 C-18.2860083 299.4603717 -18.25200928 319.80048889 -18.21697998 340.75697327 C-18.17708421 358.94435424 -18.17708421 358.94435424 -18.134552 377.13172913 C-18.11563659 385.25054335 -18.10214563 393.3693446 -18.09231567 401.48817444 C-18.08096447 410.84807521 -18.06277344 420.20793267 -18.03607854 429.56780273 C-18.02263502 434.35729154 -18.01229912 439.14673055 -18.01075292 443.93623924 C-18.00929617 448.26685244 -17.9987228 452.59734364 -17.98086357 456.92791939 C-17.9760191 458.49373574 -17.97452849 460.05956681 -17.97673106 461.6253891 C-18.15090569 476.28542389 -18.15090569 476.28542389 -11.69500732 489.12025452 C-3.58557779 496.4187411 4.44401268 496.27037305 14.90997314 496.32557678 C16.0715242 496.33547638 17.23307526 496.34537598 18.42982483 496.35557556 C22.26058937 496.3871065 26.0913663 496.41191483 29.92218018 496.43666077 C32.58161841 496.45723755 35.24105109 496.47818748 37.90048218 496.49963379 C44.17950891 496.54945204 50.45856053 496.59443095 56.73763573 496.63765615 C63.88881696 496.6871217 71.03995342 496.74200513 78.1910913 496.79733574 C92.8956828 496.91098884 107.60031971 497.0176717 122.30499268 497.12025452 C122.30499268 502.07025452 122.30499268 507.02025452 122.30499268 512.12025452 C105.93625684 512.21306111 89.56763043 512.28434034 73.19869518 512.3275032 C65.59739889 512.34808192 57.99626962 512.37611203 50.39508057 512.42201233 C43.76576965 512.46202461 37.13657976 512.48772139 30.50715142 512.4966085 C27.00058359 512.50179909 23.49436183 512.51389911 19.9879055 512.54317474 C16.06253203 512.57567863 12.13748951 512.57620474 8.2119751 512.57435608 C7.06397934 512.58873718 5.91598358 512.60311829 4.73320007 512.61793518 C-6.73636442 512.55974001 -15.19766471 509.54862782 -23.46453857 501.55775452 C-32.58734123 491.58817683 -34.86359913 481.54885554 -34.82364178 468.29495525 C-34.82539481 467.54613564 -34.82714785 466.79731602 -34.82895401 466.02580491 C-34.83359123 463.52656354 -34.83115441 461.02738093 -34.82872009 458.52813721 C-34.83058921 456.71415974 -34.83289031 454.90018268 -34.83558542 453.08620626 C-34.8416973 448.10882073 -34.84157054 443.13145201 -34.84039104 438.15406358 C-34.84018688 432.78311617 -34.84570722 427.41217415 -34.85044861 422.04122925 C-34.85875222 411.5215613 -34.86150331 401.00189895 -34.86206099 390.482228 C-34.86253625 381.93131029 -34.86459154 373.38039443 -34.86776161 364.82947731 C-34.87656715 340.58395136 -34.88118111 316.33842983 -34.88043114 292.09290227 C-34.88039118 290.7860374 -34.88035123 289.47917252 -34.88031006 288.13270569 C-34.88026918 286.82424462 -34.8802283 285.51578354 -34.88018618 284.16767213 C-34.87977967 262.95893102 -34.88935076 241.75020766 -34.90344843 220.54147168 C-34.91781092 198.76243504 -34.92471869 176.98340705 -34.92385465 155.20436555 C-34.92352265 142.97789244 -34.92627104 130.75143794 -34.9370327 118.5249691 C-34.94613598 108.11595645 -34.94831432 97.70697086 -34.94152328 87.29795595 C-34.93825731 81.98829502 -34.93820423 76.678686 -34.94687653 71.36903 C-34.95473887 66.50521359 -34.95331275 61.64149027 -34.94459239 56.77767614 C-34.94305684 55.02133776 -34.94487565 53.26499244 -34.95045247 51.50866225 C-34.99617897 36.08194641 -34.58673634 22.15039331 -23.50750732 10.30775452 C-16.91222188 4.07642295 -9.16119471 -0.01036334 0 0 Z " fill="#000000" transform="translate(34.69500732421875,-0.1202545166015625)"/>
<path d="M0 0 C0.79535156 0.41894531 1.59070313 0.83789062 2.41015625 1.26953125 C12.0305858 6.66708292 25.2848503 16.29074933 28.71484375 27.29296875 C28.80894531 27.85628906 28.90304687 28.41960937 29 29 C27.07010782 30.19982444 25.13080772 31.38452818 23.1875 32.5625 C22.10855469 33.22378906 21.02960938 33.88507813 19.91796875 34.56640625 C17 36 17 36 14 35 C12.45703125 33.1796875 12.45703125 33.1796875 10.8125 30.875 C1.98433363 19.29947895 -11.41717696 11.05961687 -26 9 C-44.79365359 7.34861721 -60.59510641 11.94982163 -75.25 24.125 C-85.53931428 33.85187588 -92.37988051 47.76294552 -93.23828125 61.93359375 C-93.67412221 79.50404312 -89.24338205 93.5662227 -77.875 107.25 C-67.2638073 118.39801526 -52.58453454 124.82764453 -37.27612305 125.58935547 C-23.7918905 125.80052118 -10.93532509 122.03842318 0 114 C0.75539063 113.44957031 1.51078125 112.89914062 2.2890625 112.33203125 C13.69735016 103.13875477 20.72459812 89.35417073 23 75 C23.11917959 72.44456789 23.18993075 69.92971424 23.1875 67.375 C23.1884668 66.3240918 23.1884668 66.3240918 23.18945312 65.25195312 C23.13010224 59.35463372 22.3629751 53.74396647 21 48 C26.29798964 45.91864693 31.45563871 44.28708387 37 43 C43.04245957 64.72408083 40.87479672 85.61851508 30.1328125 105.37109375 C19.88956404 123.27124008 3.59045596 133.98148221 -15.625 140.08984375 C-36.25301182 145.65272194 -57.01811801 141.49070212 -75.25341797 131.05566406 C-91.27320843 121.37302862 -103.0831841 105.01209784 -108 87 C-113.32194375 64.9949621 -109.56466619 44.31010404 -98 25 C-90.87352734 14.32460119 -81.33319864 5.95296652 -70 0 C-69.14792969 -0.45246094 -68.29585937 -0.90492188 -67.41796875 -1.37109375 C-46.71435888 -11.5864913 -20.34505182 -10.96094474 0 0 Z " fill="#000000" transform="translate(291,301)"/>
<path d="M0 0 C10.1446679 8.29131511 16.1497042 19.53099599 17.84375 32.47265625 C18.01164211 36.3915097 18.03159271 40.30838971 18.046875 44.23046875 C18.05257507 45.36990936 18.05827515 46.50934998 18.06414795 47.68331909 C18.07357772 50.09225543 18.08012388 52.50120455 18.08398438 54.91015625 C18.09366096 58.56403618 18.12469267 62.21734635 18.15625 65.87109375 C18.16278384 68.22004877 18.16803281 70.56900778 18.171875 72.91796875 C18.1842218 73.9965213 18.1965686 75.07507385 18.20928955 76.18630981 C18.16824463 90.42132207 14.12214837 104.19425788 3.84375 114.47265625 C-7.63018767 123.91055323 -20.3172227 128.53673252 -35.15625 127.47265625 C-49.1766291 125.17512316 -60.37343591 119.15409084 -68.90625 107.72265625 C-74.26841269 99.70389697 -77.24653042 90.69462641 -77.31738281 81.04663086 C-77.32699036 79.98459946 -77.3365979 78.92256805 -77.34649658 77.82835388 C-77.35074646 76.6887471 -77.35499634 75.54914032 -77.359375 74.375 C-77.36507507 73.18975235 -77.37077515 72.0045047 -77.37664795 70.78334045 C-77.38608794 68.27427052 -77.39262795 65.76518824 -77.39648438 63.25610352 C-77.40615262 59.44850513 -77.43717116 55.64145531 -77.46875 51.83398438 C-77.4752844 49.3893261 -77.48053315 46.94466399 -77.484375 44.5 C-77.4967218 43.37456284 -77.5090686 42.24912567 -77.52178955 41.08958435 C-77.48076044 26.26850706 -73.26469703 14.33195058 -63.19921875 3.35546875 C-45.50058714 -12.95569843 -19.45242937 -13.77880414 0 0 Z M-54.72265625 18.1328125 C-60.96273086 26.01207089 -61.61144959 35.60811368 -61.5546875 45.2890625 C-61.55755768 46.38556625 -61.56042786 47.48207001 -61.56338501 48.61180115 C-61.56541444 50.91527833 -61.55996365 53.21877319 -61.54736328 55.5222168 C-61.5312788 59.02887802 -61.54725911 62.53438951 -61.56640625 66.04101562 C-61.56442392 68.2903671 -61.56058046 70.53971787 -61.5546875 72.7890625 C-61.56076019 73.82680313 -61.56683289 74.86454376 -61.5730896 75.93373108 C-61.475765 86.10311552 -58.88827642 94.68462569 -52.15625 102.47265625 C-45.51743092 108.21129647 -37.1864075 112.15362125 -28.26171875 111.76171875 C-17.91842213 110.34167432 -9.70523872 105.59530973 -3.15625 97.47265625 C0.29947128 91.40432641 1.93930843 85.47205934 2.02075195 78.48974609 C2.03358719 77.52459076 2.04642242 76.55943542 2.05964661 75.56503296 C2.06703354 74.53165802 2.07442047 73.49828308 2.08203125 72.43359375 C2.090103 71.35695465 2.09817474 70.28031555 2.10649109 69.17105103 C2.12030477 66.89318437 2.13103903 64.61529726 2.13891602 62.33740234 C2.15041896 60.0215849 2.17084378 57.70579361 2.20043945 55.39013672 C2.24336543 52.02944062 2.2593212 48.66953088 2.26953125 45.30859375 C2.28703934 44.2873642 2.30454742 43.26613464 2.32258606 42.21395874 C2.29412914 32.64195088 -0.21831038 23.7858565 -6.32421875 16.2578125 C-12.63199898 10.11142537 -20.69604513 6.54357867 -29.46875 6.16015625 C-39.88573773 6.47850222 -47.62763702 10.61315372 -54.72265625 18.1328125 Z " fill="#000000" transform="translate(284.15625,152.52734375)"/>
<path d="M0 0 C1.95280077 0.26495708 3.90444714 0.53981765 5.8515625 0.84375 C5.96383446 31.52709006 5.96702465 62.17744079 4.8515625 92.84375 C8.4815625 92.84375 12.1115625 92.84375 15.8515625 92.84375 C15.8515625 98.12375 15.8515625 103.40375 15.8515625 108.84375 C12.2215625 108.84375 8.5915625 108.84375 4.8515625 108.84375 C4.8515625 117.75375 4.8515625 126.66375 4.8515625 135.84375 C-0.4284375 135.84375 -5.7084375 135.84375 -11.1484375 135.84375 C-11.1484375 126.93375 -11.1484375 118.02375 -11.1484375 108.84375 C-35.2384375 108.84375 -59.3284375 108.84375 -84.1484375 108.84375 C-82.64279353 105.07964007 -81.11642381 101.80834936 -79.1640625 98.29296875 C-78.56601807 97.21474854 -77.96797363 96.13652832 -77.35180664 95.02563477 C-76.70094168 93.86069561 -76.04981159 92.69590455 -75.3984375 91.53125 C-75.06552704 90.93384003 -74.73261658 90.33643005 -74.38961792 89.72091675 C-69.19924028 80.40853675 -63.8892962 71.17105257 -58.49121094 61.97729492 C-55.024158 56.07001488 -51.58435461 50.14841832 -48.20028687 44.19319153 C-46.51381376 41.22572625 -44.81463294 38.26763011 -43.08105469 35.32739258 C-39.71635127 29.58769557 -36.65276112 23.87167027 -34.04296875 17.734375 C-26.28526798 0.47739817 -18.09637233 -1.84298537 0 0 Z M-13.1484375 16.84375 C-15.05787663 19.31199074 -15.05787663 19.31199074 -16.8671875 22.52734375 C-17.39076843 23.40899452 -17.39076843 23.40899452 -17.92492676 24.30845642 C-19.01168547 26.14668778 -20.08165901 27.99386474 -21.1484375 29.84375 C-21.77234375 30.91512207 -22.39625 31.98649414 -23.0390625 33.09033203 C-24.92473281 36.35348854 -26.78916867 39.62798455 -28.6484375 42.90625 C-29.33138205 44.10633909 -30.0145746 45.30628708 -30.69799805 46.50610352 C-32.12044442 49.00383947 -33.54183093 51.50217379 -34.96240234 54.00097656 C-38.26930121 59.81623073 -41.58716402 65.62522386 -44.90576172 71.43380737 C-45.94040884 73.24530763 -46.97417791 75.05730662 -48.0078125 76.86938477 C-48.63816406 77.97338623 -49.26851563 79.0773877 -49.91796875 80.21484375 C-50.47073486 81.18349365 -51.02350098 82.15214355 -51.59301758 83.15014648 C-52.64712745 84.97560468 -53.7342399 86.78232796 -54.8503418 88.57055664 C-56.31373344 90.69692545 -56.31373344 90.69692545 -56.1484375 92.84375 C-41.2984375 92.84375 -26.4484375 92.84375 -11.1484375 92.84375 C-10.35929816 67.49264857 -10.01396928 42.20445638 -10.1484375 16.84375 C-11.1384375 16.84375 -12.1284375 16.84375 -13.1484375 16.84375 Z " fill="#000000" transform="translate(398.1484375,143.15625)"/>
<path d="M0 0 C9.24 0 18.48 0 28 0 C28 30.36 28 60.72 28 92 C31.3 92 34.6 92 38 92 C38 97.28 38 102.56 38 108 C34.7 108 31.4 108 28 108 C28 116.91 28 125.82 28 135 C22.72 135 17.44 135 12 135 C12 126.09 12 117.18 12 108 C-12.09 108 -36.18 108 -61 108 C-60.03049661 103.15248306 -58.46156824 100.03804941 -55.9375 95.9375 C-55.02149139 94.41523185 -54.10758101 92.89169996 -53.1953125 91.3671875 C-52.68774414 90.51995117 -52.18017578 89.67271484 -51.65722656 88.79980469 C-48.47616255 83.42554982 -45.40165698 77.9899072 -42.3125 72.5625 C-40.92385287 70.12591638 -39.53436933 67.68981071 -38.14453125 65.25390625 C-37.79790939 64.6463298 -37.45128754 64.03875336 -37.09416199 63.4127655 C-32.98016698 56.20631996 -28.8266332 49.02274165 -24.67211914 41.83959961 C-21.29805719 36.00054708 -17.94234654 30.15163194 -14.609375 24.2890625 C-14.24400635 23.64700867 -13.8786377 23.00495483 -13.50219727 22.34344482 C-11.72800823 19.22559462 -9.95638796 16.10634205 -8.18945312 12.984375 C-7.55458984 11.86804688 -6.91972656 10.75171875 -6.265625 9.6015625 C-5.70649414 8.61494629 -5.14736328 7.62833008 -4.57128906 6.61181641 C-3 4 -3 4 0 0 Z M9 16 C8.59910156 16.70157227 8.19820312 17.40314453 7.78515625 18.12597656 C7.21667969 19.12081055 6.64820313 20.11564453 6.0625 21.140625 C5.42272217 22.26025635 4.78294434 23.3798877 4.1237793 24.53344727 C2.69044044 27.04180071 1.25699739 29.55009457 -0.17651367 32.05834961 C-3.51918708 37.90730622 -6.86152308 43.75645236 -10.20059204 49.60746765 C-11.56886088 52.00504663 -12.93745004 54.40244262 -14.30615234 56.79977417 C-14.97632514 57.97365369 -15.64640997 59.14758344 -16.31640625 60.32156372 C-21.13669998 68.76638163 -25.98677789 77.19320609 -30.90356445 85.58227539 C-33.02957623 88.61372534 -33.02957623 88.61372534 -34 92 C-18.82 92 -3.64 92 12 92 C12 66.92 12 41.84 12 16 C11.01 16 10.02 16 9 16 Z " fill="#000000" transform="translate(147,144)"/>
<path d="M0 0 C2.65552244 1.02250422 4.03092963 2.38254739 6.01660156 4.41625977 C6.72558594 5.13491211 7.43457031 5.85356445 8.16503906 6.59399414 C8.89464844 7.34874023 9.62425781 8.10348633 10.37597656 8.88110352 C11.49359375 10.01902344 11.49359375 10.01902344 12.63378906 11.17993164 C14.4714435 13.05292558 16.30173381 14.93255962 18.12597656 16.81860352 C21.29206447 15.42974744 23.30661462 13.82832606 25.65722656 11.30688477 C26.30304688 10.63206055 26.94886719 9.95723633 27.61425781 9.26196289 C28.96126466 7.83518185 30.30238186 6.40281859 31.63769531 4.96508789 C32.28351563 4.29413086 32.92933594 3.62317383 33.59472656 2.93188477 C34.17673828 2.31095947 34.75875 1.69003418 35.35839844 1.05029297 C37.12597656 -0.18139648 37.12597656 -0.18139648 39.19921875 -0.00512695 C42.04493339 1.21147736 43.74748696 3.15870996 45.87597656 5.38110352 C46.67519531 6.20739258 47.47441406 7.03368164 48.29785156 7.88500977 C48.90113281 8.5230957 49.50441406 9.16118164 50.12597656 9.81860352 C44.57562453 16.60236711 38.3615563 22.67383319 32.12597656 28.81860352 C33.55243437 32.07726712 35.29301818 34.22108892 37.82128906 36.70922852 C38.89443359 37.77270508 38.89443359 37.77270508 39.98925781 38.85766602 C40.735625 39.58727539 41.48199219 40.31688477 42.25097656 41.06860352 C43.00507813 41.81368164 43.75917969 42.55875977 44.53613281 43.32641602 C46.39498428 45.16173772 48.25834661 46.99222261 50.12597656 48.81860352 C49.25790055 49.88676797 48.38102873 50.94778437 47.50097656 52.00610352 C47.01371094 52.5977832 46.52644531 53.18946289 46.02441406 53.79907227 C43.61190544 56.36546518 40.83187945 58.56368445 38.12597656 60.81860352 C32.18597656 54.87860352 26.24597656 48.93860352 20.12597656 42.81860352 C16.59464583 44.58426888 14.91255013 45.79353682 12.23535156 48.51391602 C11.171875 49.58706055 11.171875 49.58706055 10.08691406 50.68188477 C8.9925 51.80143555 8.9925 51.80143555 7.87597656 52.94360352 C7.13089844 53.69770508 6.38582031 54.45180664 5.61816406 55.22875977 C3.78284236 57.08761124 1.95235747 58.95097356 0.12597656 60.81860352 C-0.94218789 59.95052751 -2.00320429 59.07365569 -3.06152344 58.19360352 C-3.94904297 57.46270508 -3.94904297 57.46270508 -4.85449219 56.71704102 C-7.4208851 54.3045324 -9.61910437 51.5245064 -11.87402344 48.81860352 C-2.96402344 39.90860352 -2.96402344 39.90860352 6.12597656 30.81860352 C4.3603112 27.28727278 3.15104326 25.60517709 0.43066406 22.92797852 C-0.28476563 22.21899414 -1.00019531 21.51000977 -1.73730469 20.77954102 C-2.48367187 20.04993164 -3.23003906 19.32032227 -3.99902344 18.56860352 C-4.753125 17.82352539 -5.50722656 17.07844727 -6.28417969 16.31079102 C-8.14303116 14.47546931 -10.00639349 12.64498442 -11.87402344 10.81860352 C-11.26131592 10.10414063 -11.26131592 10.10414063 -10.63623047 9.37524414 C-10.09853027 8.74811523 -9.56083008 8.12098633 -9.00683594 7.47485352 C-8.47461426 6.85416992 -7.94239258 6.23348633 -7.39404297 5.59399414 C-6.17607143 4.17139713 -4.96191469 2.7455344 -3.74902344 1.31860352 C-1.87402344 -0.18139648 -1.87402344 -0.18139648 0 0 Z " fill="#000000" transform="translate(236.8740234375,338.181396484375)"/>
<path d="M0 0 C5.28 0 10.56 0 16 0 C16 5.28 16 10.56 16 16 C10.72 16 5.44 16 0 16 C0 10.72 0 5.44 0 0 Z " fill="#000000" transform="translate(433,34)"/>
<path d="M0 0 C5.28 0 10.56 0 16 0 C16 5.28 16 10.56 16 16 C10.72 16 5.44 16 0 16 C0 10.72 0 5.44 0 0 Z " fill="#000000" transform="translate(403,34)"/>
<path d="M0 0 C5.28 0 10.56 0 16 0 C16 5.28 16 10.56 16 16 C10.72 16 5.44 16 0 16 C0 10.72 0 5.44 0 0 Z " fill="#000000" transform="translate(373,34)"/>
</svg>
