<svg width="14" height="14" viewBox="0 0 14 14" fill="none" xmlns="http://www.w3.org/2000/svg">
<path d="M6.08696 0H0.304348C0.136957 0 0 0.136957 0 0.304348V6.08696C0 6.25435 0.136957 6.3913 0.304348 6.3913H6.08696C6.25435 6.3913 6.3913 6.25435 6.3913 6.08696V0.304348C6.3913 0.136957 6.25435 0 6.08696 0ZM5.09783 5.09783H1.29348V1.29348H5.09783V5.09783ZM13.6957 0H7.91304C7.74565 0 7.6087 0.136957 7.6087 0.304348V6.08696C7.6087 6.25435 7.74565 6.3913 7.91304 6.3913H13.6957C13.863 6.3913 14 6.25435 14 6.08696V0.304348C14 0.136957 13.863 0 13.6957 0ZM12.7065 5.09783H8.90217V1.29348H12.7065V5.09783ZM6.08696 7.6087H0.304348C0.136957 7.6087 0 7.74565 0 7.91304V13.6957C0 13.863 0.136957 14 0.304348 14H6.08696C6.25435 14 6.3913 13.863 6.3913 13.6957V7.91304C6.3913 7.74565 6.25435 7.6087 6.08696 7.6087ZM5.09783 12.7065H1.29348V8.90217H5.09783V12.7065ZM13.6957 7.6087H7.91304C7.74565 7.6087 7.6087 7.74565 7.6087 7.91304V13.6957C7.6087 13.863 7.74565 14 7.91304 14H13.6957C13.863 14 14 13.863 14 13.6957V7.91304C14 7.74565 13.863 7.6087 13.6957 7.6087ZM12.7065 12.7065H8.90217V8.90217H12.7065V12.7065Z" fill="white"/>
</svg>
