<svg width="168" height="39" viewBox="0 0 168 39" fill="none" xmlns="http://www.w3.org/2000/svg">
<path d="M10.0374 2.19727H22.6193C29.519 2.19727 33.8315 4.06869 36.5196 6.74934C39.1573 9.37887 40.3749 12.8185 40.3749 17.1176C40.3749 22.4277 38.3456 27.2831 34.5407 31.0762C30.2795 35.3241 24.1402 37.6002 15.9221 37.6002H0.5L10.0374 2.19727ZM17.2414 27.2831C20.8437 27.2831 23.9377 26.2209 25.7645 24.4005C27.2359 22.9337 28.3014 20.5572 28.3014 18.3825C28.3014 16.4608 27.7435 15.1959 26.8301 14.2861C25.7141 13.1737 23.9386 12.5161 21.0975 12.5161H19.1186L15.1616 27.2839H17.2414V27.2831Z" fill="#0D0D0D"/>
<path d="M40.6318 24.5305C40.6318 16.0848 47.582 8.44751 57.2211 8.44751C65.9468 8.44751 71.071 14.112 71.071 21.2937C71.071 29.7393 64.1208 37.3767 54.4817 37.3767C45.756 37.3767 40.6318 31.7121 40.6318 24.5305ZM60.2143 21.7996C60.2143 19.4733 58.7429 17.8038 56.511 17.8038C53.6196 17.8038 51.4886 20.7374 51.4886 24.0246C51.4886 26.3508 52.9599 28.0195 55.1918 28.0195C58.0832 28.0195 60.2143 25.0859 60.2143 21.7988V21.7996Z" fill="#71D260"/>
<path d="M60.9652 24.5305C60.9652 16.0848 67.9154 8.44751 77.5545 8.44751C86.2802 8.44751 91.4043 14.112 91.4043 21.2937C91.4043 29.7393 84.4542 37.3767 74.8151 37.3767C66.0894 37.3767 60.9652 31.7121 60.9652 24.5305ZM80.5476 21.7996C80.5476 19.4733 79.0763 17.8038 76.8444 17.8038C73.9529 17.8038 71.8219 20.7374 71.8219 24.0246C71.8219 26.3508 73.2933 28.0195 75.5251 28.0195C78.4166 28.0195 80.5476 25.0859 80.5476 21.7988V21.7996Z" fill="#71D260"/>
<path d="M91.8071 9.98613H102.562L102.41 21.1125L108.802 9.88477H117.985L118.341 21.2138L124.276 9.98613H135.387L119.457 37.8028H109.97L109.463 25.9678L102.461 37.8028H92.7205L91.8071 9.98613Z" fill="#0D0D0D"/>
<path d="M137.06 9.98608L129.654 37.6H133.243L144.257 26.0921L148.577 9.98608H137.06Z" fill="#0D0D0D"/>
<path d="M149.033 30.6715C149.033 29.508 149.235 28.2439 149.591 26.8282L151.722 18.8373H148.475L150.86 9.98619H153.407L155.984 0.680176H167.5L161.666 24.754C161.412 25.6646 161.31 26.3222 161.31 26.8784C161.31 28.042 162.02 28.6485 163.644 28.6485C164.557 28.6485 165.369 28.4969 166.993 28.042L164.507 37.3983C162.528 37.9043 160.6 38.2075 158.673 38.2075C152.179 38.2075 149.034 35.7296 149.034 30.6715H149.033Z" fill="#0D0D0D"/>
<path d="M148.743 8.03227H137.427L139.14 2.15308H150.708L148.743 8.03227Z" fill="#0D0D0D"/>
</svg>
