<svg width="16" height="14" viewBox="0 0 16 14" fill="none" xmlns="http://www.w3.org/2000/svg">
<path d="M9.03314 5.55978C8.64164 5.55978 8.33826 5.86316 8.33826 6.23771C8.33826 6.61227 8.64164 6.91564 9.03314 6.91564C9.39075 6.91564 9.69412 6.61227 9.69412 6.23771C9.69412 5.86316 9.39075 5.55978 9.03314 5.55978ZM4.28764 5.55978C3.89613 5.55978 3.59276 5.86316 3.59276 6.23771C3.59276 6.61227 3.89613 6.91564 4.28764 6.91564C4.64524 6.91564 4.94862 6.61227 4.94862 6.23771C4.94862 5.86316 4.64524 5.55978 4.28764 5.55978Z" fill="white"/>
<path d="M14.4735 4.27171C13.6894 3.19235 12.5587 2.41464 11.2703 2.06844V2.07014C10.9805 1.74812 10.6534 1.45153 10.2873 1.18713C7.51289 -0.829705 3.61819 -0.214484 1.59287 2.55994C-0.0392418 4.81406 0.0302461 7.8461 1.69456 10.0002L1.70812 12.2476C1.70812 12.3018 1.7166 12.356 1.73354 12.4069C1.75486 12.4748 1.78936 12.5378 1.83507 12.5924C1.88077 12.647 1.93679 12.692 1.99991 12.7249C2.06304 12.7578 2.13203 12.7779 2.20294 12.7841C2.27385 12.7903 2.34529 12.7825 2.41317 12.7611L4.55881 12.0848C5.12658 12.2865 5.71299 12.4018 6.29601 12.434L6.28753 12.4408C7.79762 13.5407 9.77718 13.8712 11.5923 13.2712L13.7465 13.9729C13.8007 13.9898 13.8566 14 13.9142 14C14.2142 14 14.4566 13.7576 14.4566 13.4577V11.1866C15.9497 9.15958 15.9887 6.35804 14.4735 4.27171ZM4.79609 10.8815L4.59271 10.7968L2.91484 11.3222L2.89789 9.55956L2.7623 9.40703C1.32848 7.65797 1.23357 5.13777 2.57587 3.28872C4.20968 1.04816 7.34171 0.553271 9.57549 2.17013C11.816 3.79886 12.3126 6.92581 10.6941 9.1528C9.33652 11.0154 6.90615 11.7035 4.79609 10.8815ZM13.3549 10.5934L13.2194 10.7629L13.2363 12.5255L11.5754 11.9662L11.372 12.051C10.4229 12.4035 9.41109 12.4323 8.47386 12.1696L8.47047 12.1679C9.75859 11.7729 10.8838 10.9706 11.6771 9.88158C12.9719 8.09693 13.1821 5.85468 12.4296 3.94292L12.4397 3.9497C12.8296 4.22934 13.1872 4.57848 13.4905 5.00049C14.721 6.68853 14.6515 8.98671 13.3549 10.5934Z" fill="white"/>
<path d="M6.66039 5.55978C6.26889 5.55978 5.96552 5.86316 5.96552 6.23771C5.96552 6.61227 6.26889 6.91564 6.66039 6.91564C7.018 6.91564 7.32137 6.61227 7.32137 6.23771C7.32137 5.86316 7.018 5.55978 6.66039 5.55978Z" fill="white"/>
</svg>
