<svg width="166" height="187" viewBox="0 0 166 187" fill="none" xmlns="http://www.w3.org/2000/svg">
<circle cx="83" cy="83" r="83" fill="#F2F6FF"/>
<path d="M115.808 53.284V48.6347H26.136V135.975H6V148.013C6 158.619 14.6067 167.221 25.2107 167.221H32.4267V186.227H124.292V53.284H115.808Z" fill="#F2F6FF"/>
<path d="M130.392 178.171V45.3604H38.6597V178.171H130.392Z" fill="#F2F6FF" stroke="#AFB1D9" stroke-width="0.133333"/>
<path d="M40.7866 47.5427V134.884H38.5933V166.067C39.0133 166.095 39.432 166.131 39.86 166.131H111.248C121.855 166.131 130.459 157.527 130.459 146.921V47.5427H40.7866Z" fill="#D8DAF7"/>
<path d="M130.459 178.237H38.5933V45.2933H130.459V178.237Z" stroke="#AFB1D9" stroke-width="4" stroke-miterlimit="10" stroke-linecap="round" stroke-linejoin="round"/>
<path d="M55.4743 117.592V108.742H46.6237V117.592H55.4743Z" fill="#D8DAF7" stroke="#AFB1D9" stroke-width="0.133333"/>
<path d="M55.4743 97.7242V88.8737H46.6237V97.7242H55.4743Z" fill="#D8DAF7" stroke="#AFB1D9" stroke-width="0.133333"/>
<path d="M55.4743 77.8683V69.0187H46.6237V77.8683H55.4743Z" fill="#D8DAF7" stroke="#AFB1D9" stroke-width="0.133333"/>
<path d="M31.3776 159.166H100.508C96.0936 158.649 92.1292 156.636 89.149 153.654C85.6653 150.158 83.5017 145.352 83.5016 140.023V128.052H12.233V140.023C12.2332 150.593 20.8105 159.166 31.3776 159.166Z" fill="#D8DAF7" stroke="#AFB1D9" stroke-width="0.133333"/>
<path d="M102.766 159.166C113.335 159.165 121.908 150.593 121.908 140.023V40.7105H32.3691V127.919H83.6347V140.023C83.6348 145.315 85.7832 150.087 89.2431 153.559C92.6991 157.018 97.488 159.166 102.766 159.166ZM46.4902 68.8853H55.6083V78.0015H46.4902V68.8853ZM46.4902 88.7398H55.6083V97.857H46.4902V88.7398ZM46.4902 108.608H55.6083V117.725H46.4902V108.608Z" fill="white" stroke="#AFB1D9" stroke-width="0.133333"/>
<path d="M32.3026 127.985V40.644H121.975V140.023C121.975 150.629 113.372 159.232 102.765 159.232M32.3026 127.985H83.568V140.023C83.568 145.333 85.724 150.123 89.196 153.607C92.664 157.077 97.4693 159.232 102.765 159.232M32.3026 127.985H12.1666V140.023C12.1666 150.629 20.7733 159.232 31.3773 159.232H102.765" stroke="#AFB1D9" stroke-width="4" stroke-miterlimit="10" stroke-linecap="round" stroke-linejoin="round"/>
<path d="M55.5413 77.9347H46.5573V68.952H55.5413V77.9347Z" stroke="#AFB1D9" stroke-width="4" stroke-miterlimit="10" stroke-linecap="round" stroke-linejoin="round"/>
<path d="M65.1466 73.4373H103.576" stroke="#AFB1D9" stroke-width="4" stroke-miterlimit="10" stroke-linecap="round" stroke-linejoin="round"/>
<path d="M55.5413 97.7906H46.5573V88.8066H55.5413V97.7906Z" stroke="#AFB1D9" stroke-width="4" stroke-miterlimit="10" stroke-linecap="round" stroke-linejoin="round"/>
<path d="M65.1466 93.304H103.576" stroke="#AFB1D9" stroke-width="4" stroke-miterlimit="10" stroke-linecap="round" stroke-linejoin="round"/>
<path d="M55.5413 117.659H46.5573V108.675H55.5413V117.659Z" stroke="#AFB1D9" stroke-width="4" stroke-miterlimit="10" stroke-linecap="round" stroke-linejoin="round"/>
<path d="M65.1466 113.175H103.576" stroke="#AFB1D9" stroke-width="4" stroke-miterlimit="10" stroke-linecap="round" stroke-linejoin="round"/>
<path d="M50.7013 58.072H103.576" stroke="#AFB1D9" stroke-width="4" stroke-miterlimit="10" stroke-linecap="round" stroke-linejoin="round"/>
<path d="M49.2133 35V45.2933" stroke="#AFB1D9" stroke-width="4" stroke-miterlimit="10" stroke-linecap="round" stroke-linejoin="round"/>
<path d="M63.1747 35V45.2933" stroke="#AFB1D9" stroke-width="4" stroke-miterlimit="10" stroke-linecap="round" stroke-linejoin="round"/>
<path d="M77.1387 35V45.2933" stroke="#AFB1D9" stroke-width="4" stroke-miterlimit="10" stroke-linecap="round" stroke-linejoin="round"/>
<path d="M91.1013 35V45.2933" stroke="#AFB1D9" stroke-width="4" stroke-miterlimit="10" stroke-linecap="round" stroke-linejoin="round"/>
<path d="M105.065 35V45.2933" stroke="#AFB1D9" stroke-width="4" stroke-miterlimit="10" stroke-linecap="round" stroke-linejoin="round"/>
</svg>
