<svg width="141" height="158" viewBox="0 0 141 158" fill="none" xmlns="http://www.w3.org/2000/svg">
<circle cx="70.5" cy="70.5" r="70.5" fill="#F2F6FF"/>
<path d="M28.9249 148.789V107.213H33.9295L43.9388 99.899L55.103 108.753L63.9574 99.899L76.2765 108.753L87.0558 99.899L98.22 107.213L109.384 99.899L112.464 102.979L110.924 133.776L93.6003 136.855V143.015L89.3656 154.563H33.9295L28.9249 148.789Z" fill="#F2F6FF"/>
<path d="M89.3656 154.178L93.9853 139.165L110.924 133.776L108.999 141.86L101.3 150.329L89.3656 154.178Z" fill="#D8DAF7"/>
<path d="M43.1689 90.6599L32.7746 98.3591L28.9249 93.3547V50.239L32.7746 46.0045L37.7792 43.3098H107.074L112.849 50.239V93.3547L109.384 90.6599L97.835 98.3591L87.8257 88.7351L77.0465 98.3591L65.1123 90.6599L53.5631 98.3591L43.1689 90.6599Z" fill="white"/>
<path d="M44.2874 98.1877C45.1013 98.6177 45.7648 99.1755 46.4591 99.7759C46.8624 100.107 47.2662 100.438 47.6705 100.768C47.9826 101.026 47.9826 101.026 48.3011 101.29C49.409 102.185 50.5593 103.021 51.71 103.86C51.9267 104.019 52.1434 104.177 52.3667 104.341C52.8712 104.711 53.3762 105.08 53.8816 105.448C54.8235 104.993 55.6593 104.437 56.5071 103.827C56.6614 103.717 56.8158 103.606 56.9748 103.493C58.5715 102.339 60.1236 101.128 61.6725 99.9113C61.8621 99.7624 62.0518 99.6134 62.2472 99.4599C62.4997 99.2606 62.4997 99.2606 62.7573 99.0572C63.7899 98.268 64.3955 98.0215 65.6737 98.0535C66.9882 98.3231 67.9264 99.2297 68.9374 100.068C69.4158 100.446 69.8942 100.825 70.3726 101.204C70.8399 101.581 71.3069 101.959 71.7735 102.336C72.5466 102.959 73.3247 103.574 74.1072 104.184C74.273 104.32 74.4388 104.457 74.6097 104.597C75.1212 105.014 75.1212 105.014 75.9223 105.448C76.9005 105.175 77.6147 104.682 78.409 104.062C78.632 103.89 78.8551 103.717 79.0849 103.54C79.3195 103.357 79.554 103.173 79.7956 102.985C80.285 102.609 80.7746 102.234 81.2644 101.858C81.924 101.351 82.5833 100.844 83.2393 100.332C83.7195 99.9583 84.2039 99.5909 84.69 99.2249C84.9537 99.0217 85.2174 98.8184 85.4892 98.6091C86.4884 98.0862 87.2798 97.921 88.3688 98.1877C89.2062 98.625 89.9184 99.1864 90.6539 99.7759C91.084 100.107 91.5141 100.438 91.9444 100.768C92.1647 100.94 92.3851 101.112 92.6121 101.29C93.7481 102.168 94.9084 103.012 96.0669 103.86C96.484 104.167 96.9009 104.474 97.3178 104.781C97.4928 104.91 97.6679 105.039 97.8482 105.172C97.9717 105.263 98.0951 105.354 98.2223 105.448C99.6247 104.69 100.858 103.82 102.112 102.839C102.501 102.54 102.89 102.242 103.279 101.943C104.03 101.364 104.775 100.778 105.515 100.185C105.85 99.9243 106.185 99.6636 106.52 99.4031C106.669 99.2803 106.817 99.1574 106.971 99.0308C107.987 98.2515 108.812 97.994 110.099 98.0662C111.084 98.2761 111.735 98.8029 112.484 99.4518C112.632 99.5711 112.78 99.6904 112.933 99.8134C113.989 100.679 113.989 100.679 114.299 101.299C114.325 101.674 114.334 102.05 114.335 102.426C114.337 102.663 114.338 102.9 114.34 103.144C114.34 103.405 114.341 103.666 114.341 103.934C114.342 104.208 114.343 104.483 114.345 104.765C114.349 105.677 114.35 106.588 114.352 107.5C114.353 108.135 114.355 108.769 114.356 109.404C114.359 110.738 114.36 112.073 114.361 113.407C114.363 115.108 114.369 116.808 114.376 118.509C114.381 119.822 114.383 121.136 114.383 122.449C114.384 123.075 114.386 123.702 114.389 124.328C114.436 133.509 112.015 141.493 105.522 148.198C100.282 153.461 93.0639 157.297 85.494 157.345C85.2994 157.345 85.1049 157.345 84.9044 157.345C84.6931 157.346 84.4818 157.347 84.2641 157.348C83.5597 157.351 82.8553 157.352 82.1509 157.353C81.6443 157.354 81.1377 157.356 80.6312 157.358C78.9711 157.363 77.311 157.366 75.6509 157.369C75.0782 157.37 74.5055 157.371 73.9329 157.372C71.2427 157.377 68.5524 157.38 65.8622 157.383C62.7611 157.385 59.6601 157.392 56.5591 157.402C54.1589 157.41 51.7588 157.414 49.3586 157.415C47.9265 157.415 46.4944 157.418 45.0623 157.424C43.7146 157.43 42.367 157.431 41.0193 157.429C40.5263 157.429 40.0332 157.43 39.5402 157.434C35.8102 157.459 32.8512 157.152 30.0258 154.455C27.4674 151.775 26.9939 148.906 27.024 145.344C27.0277 144.742 27.0187 144.14 27.0089 143.538C27.0087 143.153 27.0091 142.768 27.0104 142.382C27.007 142.204 27.0035 142.025 27 141.841C27.0185 140.888 27.111 140.517 27.7833 139.822C28.6291 139.321 29.0581 139.254 30.0258 139.415C30.7116 139.745 30.7116 139.745 31.3223 140.453C31.5146 141.503 31.5037 142.547 31.5006 143.613C31.4589 147.746 31.4589 147.746 33.5051 151.189C35.2579 152.739 37.0949 152.93 39.3656 152.933C39.6311 152.934 39.6311 152.934 39.902 152.935C40.4919 152.937 41.0818 152.937 41.6718 152.936C42.0961 152.937 42.5205 152.938 42.9449 152.939C44.0957 152.941 45.2466 152.942 46.3975 152.942C47.1176 152.942 47.8377 152.943 48.5578 152.944C51.0732 152.946 53.5886 152.947 56.1041 152.947C58.4433 152.947 60.7826 152.949 63.1219 152.953C65.1343 152.957 67.1467 152.958 69.1591 152.958C70.3591 152.958 71.5592 152.959 72.7593 152.962C73.8894 152.964 75.0196 152.964 76.1497 152.962C76.5624 152.962 76.975 152.962 77.3877 152.964C81.5213 152.979 85.2446 152.738 88.4154 149.792C90.6993 147.259 91.2049 144.333 91.2667 141.032C91.2729 140.716 91.2791 140.4 91.2855 140.074C91.2967 139.415 91.3047 138.756 91.3098 138.097C91.3206 137.624 91.3206 137.624 91.3316 137.143C91.3353 136.857 91.3391 136.572 91.343 136.277C91.5147 135.339 91.7396 135.034 92.5177 134.489C93.2525 134.356 93.2525 134.356 94.0978 134.349C94.408 134.343 94.7182 134.337 95.0378 134.331C95.3613 134.33 95.6849 134.328 96.0182 134.327C100.19 134.283 103.892 134.09 107.085 131.123C109.454 128.495 109.917 125.385 109.944 121.977C109.947 121.775 109.949 121.572 109.952 121.363C109.96 120.701 109.967 120.039 109.973 119.377C109.978 118.915 109.984 118.453 109.989 117.991C110.004 116.78 110.016 115.569 110.029 114.359C110.042 113.121 110.056 111.884 110.071 110.646C110.099 108.222 110.125 105.798 110.15 103.374C109.102 103.557 108.514 103.805 107.673 104.465C107.451 104.637 107.229 104.809 107.001 104.987C106.767 105.171 106.534 105.355 106.293 105.545C105.804 105.923 105.314 106.3 104.824 106.678C103.968 107.343 103.116 108.014 102.268 108.691C101.935 108.95 101.602 109.209 101.269 109.467C101.124 109.587 100.98 109.707 100.831 109.83C99.8511 110.582 99.0212 110.861 97.8099 110.794C96.5016 110.458 95.5329 109.551 94.511 108.705C94.0317 108.324 93.5522 107.942 93.0727 107.561C92.8439 107.376 92.6151 107.19 92.3794 106.999C91.5697 106.348 90.743 105.726 89.9084 105.108C89.6808 104.937 89.4532 104.767 89.2187 104.592C88.9263 104.374 88.9263 104.374 88.6281 104.151C88.4573 103.993 88.2865 103.834 88.1105 103.67C87.6038 103.307 87.6038 103.307 87.0126 103.481C85.9762 104.074 85.07 104.8 84.139 105.545C83.7217 105.872 83.3044 106.199 82.887 106.526C82.0792 107.162 81.2781 107.805 80.4804 108.454C80.1226 108.738 79.7647 109.021 79.4067 109.305C79.2466 109.439 79.0866 109.573 78.9217 109.711C77.9075 110.505 77.0648 110.881 75.7607 110.799C74.4693 110.453 73.5135 109.561 72.5028 108.722C72.0243 108.34 71.5456 107.959 71.0665 107.579C70.8344 107.392 70.6024 107.205 70.3633 107.013C69.4654 106.299 68.544 105.625 67.6084 104.962C67.3327 104.765 67.0569 104.567 66.7728 104.364C66.1996 103.98 65.6499 103.673 65.0316 103.374C64.9082 103.465 64.7847 103.555 64.6575 103.649C64.4825 103.778 64.3075 103.907 64.1271 104.04C63.93 104.185 63.7329 104.331 63.5298 104.481C63.09 104.804 62.6496 105.128 62.2089 105.45C61.0451 106.303 59.8912 107.165 58.7537 108.053C58.5372 108.219 58.3207 108.386 58.0976 108.557C57.6829 108.877 57.2711 109.2 56.8628 109.527C55.8215 110.321 54.9729 110.905 53.6267 110.787C52.5294 110.465 51.6989 109.751 50.8186 109.046C50.3886 108.715 49.9584 108.384 49.5282 108.053C49.3078 107.881 49.0875 107.709 48.8604 107.532C47.7245 106.654 46.5642 105.81 45.4057 104.962C44.9886 104.655 44.5716 104.347 44.1548 104.04C43.9797 103.911 43.8047 103.782 43.6243 103.649C43.5009 103.558 43.3774 103.467 43.2502 103.374C42.4978 103.727 41.847 104.132 41.1799 104.628C40.9821 104.774 40.7843 104.92 40.5805 105.071C40.2655 105.306 40.2655 105.306 39.9441 105.545C39.6181 105.785 39.6181 105.785 39.2855 106.03C38.2122 106.823 37.149 107.625 36.1032 108.454C35.9196 108.598 35.736 108.741 35.5469 108.889C35.2024 109.16 34.8607 109.434 34.5223 109.711C34.3662 109.833 34.21 109.955 34.0491 110.081C33.9161 110.188 33.7832 110.295 33.6462 110.406C32.8832 110.748 32.148 110.647 31.3223 110.634C31.3252 110.93 31.3281 111.227 31.3311 111.532C31.3573 114.325 31.3768 117.118 31.3895 119.911C31.3963 121.347 31.4055 122.783 31.4201 124.219C31.4342 125.604 31.442 126.989 31.4453 128.375C31.4477 128.904 31.4524 129.432 31.4594 129.961C31.4688 130.701 31.4701 131.441 31.4695 132.181C31.4742 132.401 31.4788 132.62 31.4836 132.846C31.4742 133.921 31.4701 134.33 30.7135 135.144C29.8672 135.614 29.4248 135.685 28.47 135.526C27.7834 135.172 27.7834 135.172 27.1735 134.489C26.9758 133.569 26.9992 132.659 27.0098 131.722C27.008 131.44 27.0061 131.158 27.0042 130.868C26.9998 129.936 27.0049 129.004 27.0104 128.071C27.0102 127.424 27.0096 126.777 27.0085 126.13C27.0078 124.773 27.0115 123.417 27.0187 122.06C27.027 120.492 27.027 118.925 27.0225 117.357C27.0184 115.848 27.0202 114.339 27.0246 112.83C27.0259 112.188 27.0258 111.546 27.0242 110.904C27.0228 110.008 27.0281 109.112 27.0352 108.215C27.0335 107.949 27.0318 107.683 27.03 107.408C27.0542 105.624 27.0542 105.624 27.6379 104.765C28.5002 104.232 29.3171 104.218 30.2851 104.411C30.8812 104.703 31.3177 105.029 31.8409 105.448C32.5934 105.094 33.2442 104.689 33.9113 104.194C34.1091 104.048 34.3068 103.901 34.5106 103.75C34.7206 103.594 34.9306 103.438 35.147 103.276C35.3648 103.116 35.5825 102.956 35.8068 102.791C36.8769 102.002 37.9345 101.202 38.9697 100.367C39.151 100.224 39.3322 100.08 39.519 99.9322C39.8575 99.6629 40.1926 99.389 40.5233 99.11C41.7204 98.1657 42.7738 97.8158 44.2874 98.1877ZM105.229 137.525C103.146 138.414 101.269 138.484 99.0164 138.54C98.5278 138.555 98.5278 138.555 98.0293 138.571C97.2294 138.595 96.4294 138.617 95.6293 138.638C95.6269 138.833 95.6244 139.029 95.6219 139.231C95.6078 140.135 95.5862 141.039 95.5645 141.944C95.5608 142.251 95.5571 142.559 95.5533 142.876C95.4787 145.608 94.8216 147.899 93.5549 150.306C93.5549 150.477 93.5549 150.648 93.5549 150.824C96.957 149.82 99.6372 147.565 102.112 145.12C102.297 144.953 102.483 144.786 102.674 144.615C104.851 142.612 106.669 139.808 107.816 137.082C107.816 136.911 107.816 136.74 107.816 136.563C106.881 136.563 106.06 137.128 105.229 137.525Z" fill="#AFB1D9"/>
<path d="M38.2332 41.0113C38.5237 41.0097 38.8143 41.0081 39.1137 41.0064C40.0801 41.0023 41.0463 41.0055 42.0127 41.0088C42.7085 41.0074 43.4042 41.0056 44.1 41.0033C45.7893 40.9987 47.4785 40.9997 49.1678 41.0027C50.5415 41.005 51.9152 41.0054 53.2889 41.0042C53.4848 41.0041 53.6808 41.0039 53.8827 41.0037C54.2809 41.0034 54.6791 41.0031 55.0773 41.0027C58.8058 40.9998 62.5342 41.0032 66.2626 41.0088C69.4575 41.0134 72.6522 41.0126 75.8471 41.0078C79.5627 41.0022 83.2784 41.0001 86.9941 41.0033C87.3907 41.0036 87.7874 41.0039 88.1841 41.0042C88.4768 41.0045 88.4768 41.0045 88.7755 41.0047C90.1465 41.0056 91.5175 41.0041 92.8886 41.0017C94.5608 40.9987 96.233 40.9996 97.9053 41.0051C98.7575 41.0078 99.6096 41.0083 100.462 41.0054C101.388 41.0026 102.314 41.0062 103.24 41.0113C103.506 41.009 103.772 41.0067 104.046 41.0043C106.958 41.0356 109.337 41.9813 111.447 43.9953C114.111 46.7859 114.472 49.7432 114.434 53.4383C114.429 54.0967 114.434 54.7544 114.441 55.4128C114.44 55.8336 114.439 56.2545 114.437 56.6753C114.439 56.8709 114.441 57.0664 114.443 57.2679C114.427 58.1825 114.371 58.6823 113.804 59.4162C113.216 59.8456 112.944 59.9531 112.225 59.9418C111.968 59.9458 111.968 59.9458 111.706 59.9499C110.943 59.7473 110.644 59.3843 110.15 58.775C110.017 58.0278 110.017 58.0278 110.011 57.1676C110.005 56.8539 109.999 56.5402 109.992 56.217C109.991 55.89 109.99 55.5629 109.988 55.2259C110.059 50.8938 110.059 50.8938 107.968 47.2607C105.973 45.4973 103.765 45.5123 101.236 45.5163C100.83 45.5155 100.83 45.5155 100.415 45.5146C99.5081 45.5129 98.6011 45.5131 97.694 45.5134C97.0436 45.5126 96.3931 45.5117 95.7427 45.5107C94.1593 45.5087 92.5759 45.5078 90.9925 45.5077C89.7051 45.5076 88.4177 45.507 87.1303 45.5062C83.4779 45.5039 79.8255 45.5027 76.1732 45.5029C75.878 45.503 75.878 45.503 75.5768 45.503C75.2813 45.503 75.2813 45.503 74.9798 45.503C71.7872 45.5031 68.5946 45.5006 65.402 45.497C62.1216 45.4932 58.8412 45.4915 55.5609 45.4917C53.7201 45.4918 51.8793 45.4911 50.0386 45.4883C48.3072 45.4857 46.5758 45.4857 44.8444 45.4876C44.2094 45.4879 43.5744 45.4873 42.9393 45.4857C42.0716 45.4837 41.2038 45.4849 40.3361 45.4869C40.0856 45.4856 39.8352 45.4842 39.5772 45.4829C37.2002 45.4949 35.0444 45.7072 33.2916 47.4745C31.7361 49.2334 31.5527 51.0781 31.5408 53.3556C31.5395 53.5348 31.5383 53.7141 31.5369 53.8987C31.533 54.4959 31.5308 55.093 31.5286 55.6902C31.5261 56.1196 31.5235 56.549 31.5208 56.9784C31.5138 58.1419 31.5084 59.3054 31.5032 60.4688C31.4975 61.6856 31.4904 62.9023 31.4835 64.1191C31.4705 66.4221 31.4589 68.7252 31.4477 71.0283C31.4349 73.6507 31.4206 76.2731 31.4063 78.8955C31.3768 84.2891 31.3491 89.6826 31.3225 95.0762C32.3704 94.8932 32.9586 94.6448 33.8001 93.9843C34.0218 93.8123 34.2435 93.6404 34.4719 93.4632C34.7055 93.2789 34.939 93.0945 35.1797 92.9046C35.6692 92.527 36.1587 92.1496 36.6484 91.7722C37.5052 91.1066 38.3569 90.4354 39.2049 89.7586C39.5377 89.4999 39.8706 89.2412 40.2037 88.9828C40.4207 88.8031 40.4207 88.8031 40.6421 88.6198C41.639 87.8548 42.4667 87.6086 43.6951 87.6774C44.827 87.942 45.5962 88.6583 46.4593 89.4041C46.8644 89.7348 47.2699 90.065 47.6758 90.3947C47.8841 90.5666 48.0924 90.7385 48.307 90.9156C49.3967 91.8075 50.5079 92.6687 51.6292 93.5204C51.835 93.6836 52.0409 93.8467 52.253 94.0148C52.7847 94.4173 53.2846 94.7796 53.8818 95.0762C54.9353 94.9268 55.5856 94.2715 56.3776 93.5852C58.3226 91.9516 60.3804 90.4731 62.4327 88.9783C62.7883 88.7177 63.1364 88.4464 63.4767 88.166C64.2321 87.6555 64.7877 87.6397 65.683 87.6726C66.9888 87.9626 67.9284 88.8595 68.9376 89.6958C69.416 90.0747 69.8944 90.4535 70.3729 90.8323C70.8401 91.2093 71.3071 91.5868 71.7737 91.9647C72.5468 92.5869 73.3249 93.2018 74.1074 93.8121C74.2732 93.9486 74.439 94.085 74.6099 94.2256C75.1214 94.6422 75.1214 94.6422 75.9225 95.0762C76.9007 94.8032 77.615 94.31 78.4092 93.6906C78.6323 93.5181 78.8553 93.3456 79.0851 93.1679C79.3197 92.9848 79.5542 92.8016 79.7959 92.6129C80.2852 92.2372 80.7748 91.8617 81.2646 91.4866C81.9243 90.9795 82.5835 90.472 83.2395 89.9602C83.7197 89.5865 84.2041 89.2191 84.6902 88.8531C84.9539 88.6499 85.2177 88.4467 85.4894 88.2373C86.4887 87.7144 87.28 87.5492 88.369 87.8159C89.2064 88.2533 89.9186 88.8146 90.6541 89.4041C91.0842 89.7351 91.5143 90.066 91.9446 90.3967C92.1649 90.5687 92.3853 90.7407 92.6123 90.9179C93.7483 91.7958 94.9086 92.6402 96.0671 93.488C96.4842 93.7951 96.9012 94.1023 97.318 94.4097C97.4931 94.5387 97.6681 94.6677 97.8485 94.8006C97.9719 94.8915 98.0953 94.9825 98.2225 95.0762C99.6249 94.3184 100.859 93.4486 102.112 92.467C102.5 92.1684 102.888 91.8699 103.277 91.5717C103.853 91.1277 104.427 90.6826 104.999 90.2332C105.514 89.8287 106.033 89.4297 106.553 89.0314C106.782 88.8471 106.782 88.8471 107.017 88.6591C108.109 87.8311 108.809 87.7663 110.15 87.8159C110.148 87.5324 110.146 87.2488 110.143 86.9567C110.122 84.2859 110.107 81.6152 110.097 78.9444C110.091 77.5713 110.084 76.1983 110.072 74.8252C110.061 73.5003 110.055 72.1756 110.052 70.8507C110.05 70.345 110.046 69.8392 110.041 69.3335C110.033 68.6257 110.032 67.9182 110.033 67.2104C110.029 67.0008 110.025 66.7912 110.021 66.5752C110.028 65.6367 110.067 65.1078 110.644 64.3498C111.232 63.9289 111.51 63.8201 112.225 63.8312C112.482 63.8272 112.482 63.8272 112.743 63.8231C113.551 64.0375 113.802 64.3176 114.299 64.9981C114.458 65.8869 114.441 66.7691 114.433 67.67C114.436 68.0774 114.436 68.0774 114.439 68.4931C114.444 69.3917 114.441 70.2901 114.437 71.1887C114.438 71.8126 114.439 72.4365 114.44 73.0604C114.442 74.3682 114.439 75.676 114.434 76.9838C114.429 78.6615 114.432 80.339 114.438 82.0167C114.442 83.305 114.441 84.5934 114.438 85.8818C114.437 86.5004 114.438 87.119 114.441 87.7377C114.443 88.6019 114.439 89.4657 114.433 90.3299C114.436 90.5864 114.438 90.8429 114.44 91.1071C114.418 92.8278 114.418 92.8278 113.835 93.6793C112.974 94.2196 112.158 94.2323 111.188 94.039C110.592 93.7472 110.155 93.4204 109.632 93.0018C108.879 93.3554 108.229 93.7606 107.561 94.2558C107.265 94.4753 107.265 94.4753 106.962 94.6993C106.752 94.8557 106.542 95.0122 106.326 95.1734C106.108 95.3336 105.89 95.4937 105.666 95.6587C104.596 96.4482 103.538 97.2476 102.503 98.0824C102.322 98.226 102.141 98.3696 101.954 98.5175C101.615 98.7869 101.28 99.0607 100.95 99.3397C99.9384 100.137 99.104 100.508 97.7999 100.425C96.5205 100.086 95.5777 99.2123 94.5761 98.3822C94.0977 98.0033 93.6193 97.6245 93.1408 97.2457C92.6736 96.8687 92.2066 96.4912 91.74 96.1134C90.9669 95.4911 90.1888 94.8762 89.4063 94.2659C89.2404 94.1294 89.0746 93.993 88.9038 93.8524C88.0332 93.1542 88.0332 93.1542 86.9642 93.0788C85.9805 93.7276 85.0589 94.4374 84.1392 95.1734C83.722 95.5003 83.3046 95.8272 82.8872 96.1539C82.0794 96.7901 81.2783 97.4336 80.4806 98.0824C80.1228 98.3661 79.7649 98.6497 79.4069 98.9332C79.2469 99.0673 79.0868 99.2015 78.9219 99.3397C77.9058 100.134 77.0638 100.508 75.7575 100.425C74.4833 100.087 73.547 99.2114 72.5516 98.3822C72.0757 98.002 71.5993 97.6225 71.1224 97.2437C70.8856 97.0537 70.6488 96.8637 70.4049 96.6679C69.3491 95.8382 68.2569 95.065 67.1549 94.2983C66.9659 94.1662 66.7768 94.0341 66.5821 93.898C66.1524 93.5983 65.7219 93.2999 65.2911 93.0018C63.822 93.7877 62.5562 94.7191 61.2558 95.7568C60.8431 96.08 60.4302 96.4028 60.017 96.7251C59.4349 97.1797 58.8529 97.6342 58.2726 98.091C57.796 98.4634 57.3148 98.8288 56.8314 99.1925C56.5607 99.4004 56.2899 99.6083 56.011 99.8225C54.9829 100.365 54.2422 100.493 53.1039 100.262C52.2713 99.8225 52.2713 99.8225 51.4509 99.1925C51.3006 99.0793 51.1504 98.9661 50.9956 98.8495C50.4839 98.4614 49.9787 98.0658 49.4737 97.6691C49.068 97.3543 48.6622 97.0396 48.2562 96.7251C47.642 96.2487 47.0287 95.7713 46.4184 95.2898C45.3885 94.4784 44.3538 93.7106 43.2505 93.0018C42.498 93.3554 41.8472 93.7606 41.1801 94.2558C40.8835 94.4753 40.8835 94.4753 40.5808 94.6993C40.3708 94.8557 40.1608 95.0122 39.9443 95.1734C39.6178 95.4136 39.6178 95.4136 39.2846 95.6587C38.2145 96.4482 37.1569 97.2476 36.1217 98.0824C35.9404 98.226 35.7592 98.3696 35.5724 98.5175C35.2339 98.7869 34.8988 99.0607 34.5681 99.3397C33.5261 100.162 32.7089 100.47 31.3708 100.388C30.3895 100.17 29.7365 99.6457 28.9888 98.998C28.8408 98.8787 28.6927 98.7593 28.5401 98.6364C27.4839 97.7709 27.4839 97.7709 27.1737 97.1505C27.1467 96.5267 27.1354 95.9102 27.1356 95.2863C27.1346 95.0919 27.1336 94.8976 27.1327 94.6974C27.1298 94.0428 27.1288 93.3881 27.1278 92.7335C27.1262 92.2654 27.1245 91.7974 27.1227 91.3293C27.1181 90.0547 27.1154 88.7801 27.1133 87.5055C27.1119 86.7088 27.1104 85.9121 27.1087 85.1154C27.1038 82.6218 27.1001 80.1283 27.0979 77.6347C27.0954 74.7583 27.0886 71.8819 27.0781 69.0055C27.0703 66.7816 27.0664 64.5577 27.0656 62.3338C27.065 61.006 27.0627 59.6783 27.0561 58.3506C27.0501 57.0998 27.049 55.8491 27.0517 54.5983C27.0518 54.1408 27.0502 53.6833 27.0466 53.2258C27.0199 49.6056 27.4315 46.713 30.026 43.9953C32.4043 41.725 34.9999 40.9832 38.2332 41.0113Z" fill="#AFB1D9"/>
<path d="M38.9414 65.1232C39.2648 65.1204 39.2648 65.1204 39.5947 65.1176C40.3055 65.1131 41.0161 65.1161 41.7268 65.1196C42.2219 65.1189 42.7169 65.1179 43.2119 65.1166C44.2486 65.1151 45.2852 65.1173 46.3219 65.1221C47.6499 65.1281 48.9777 65.1247 50.3057 65.1184C51.3277 65.1147 52.3496 65.1159 53.3715 65.1186C53.8611 65.1193 54.3508 65.1184 54.8404 65.116C55.525 65.1134 56.2094 65.1174 56.894 65.1232C57.0958 65.1211 57.2977 65.119 57.5056 65.1168C58.4688 65.1318 59.0205 65.2275 59.8416 65.7484C60.3642 66.2945 60.3642 66.2945 60.5273 66.8698C60.5188 67.1626 60.5188 67.1626 60.5101 67.4614C60.5104 67.6566 60.5107 67.8518 60.5111 68.0529C60.3007 68.8768 60.0059 69.1498 59.327 69.6654C58.5626 69.7677 57.8952 69.8073 57.131 69.7996C56.7995 69.8023 56.7995 69.8023 56.4612 69.8051C55.7309 69.8096 55.0009 69.8066 54.2706 69.8031C53.763 69.8038 53.2553 69.8048 52.7477 69.8061C51.684 69.8076 50.6203 69.8054 49.5566 69.8006C48.1928 69.7947 46.8292 69.7981 45.4654 69.8043C44.4172 69.808 43.369 69.8068 42.3209 69.8042C41.818 69.8035 41.3151 69.8043 40.8123 69.8067C40.1095 69.8094 39.4071 69.8053 38.7044 69.7996C38.4963 69.8017 38.2883 69.8038 38.074 69.8059C37.143 69.7917 36.6139 69.7455 35.8617 69.1743C35.4155 68.5503 35.324 68.2229 35.3253 67.4614C35.3196 67.2662 35.314 67.071 35.3081 66.8698C35.7945 65.1539 37.4252 65.1074 38.9414 65.1232Z" fill="#AFB1D9"/>
<path d="M38.7044 55.5293C38.9254 55.5275 39.1465 55.5256 39.3742 55.5238C40.1045 55.5192 40.8345 55.5222 41.5648 55.5257C42.0724 55.525 42.5801 55.524 43.0877 55.5227C44.1514 55.5212 45.2151 55.5234 46.2788 55.5283C47.6426 55.5342 49.0062 55.5308 50.37 55.5246C51.4182 55.5208 52.4663 55.522 53.5145 55.5247C54.0174 55.5254 54.5203 55.5245 55.0231 55.5221C55.7259 55.5195 56.4283 55.5235 57.131 55.5293C57.339 55.5272 57.5471 55.5251 57.7614 55.5229C58.695 55.5371 59.2215 55.5829 59.9742 56.1581C60.3968 56.746 60.505 57.0221 60.4939 57.7378C60.4979 57.9945 60.4979 57.9945 60.502 58.2564C60.2932 59.0424 59.9738 59.3179 59.327 59.8122C58.5626 59.9145 57.8952 59.9541 57.131 59.9464C56.7995 59.9491 56.7995 59.9491 56.4612 59.9519C55.7309 59.9565 55.0009 59.9534 54.2706 59.9499C53.763 59.9506 53.2553 59.9516 52.7477 59.953C51.684 59.9545 50.6203 59.9523 49.5566 59.9474C48.1928 59.9415 46.8292 59.9449 45.4654 59.9511C44.4172 59.9549 43.369 59.9537 42.3209 59.951C41.818 59.9503 41.3151 59.9511 40.8123 59.9536C40.1095 59.9562 39.4071 59.9522 38.7044 59.9464C38.4964 59.9485 38.2883 59.9506 38.074 59.9528C37.1404 59.9385 36.6139 59.8928 35.8612 59.3176C35.4386 58.7297 35.3304 58.4536 35.3415 57.7378C35.3375 57.4811 35.3375 57.4811 35.3334 57.2193C35.7875 55.5098 37.1953 55.5141 38.7044 55.5293Z" fill="#AFB1D9"/>
</svg>
