<svg width="16" height="14" viewBox="0 0 16 14" fill="none" xmlns="http://www.w3.org/2000/svg">
<path d="M15.3622 0H0.636888C0.146843 0 -0.159185 0.522067 0.0868377 0.938547L4.73926 8.86536V13.3743C4.73926 13.7204 5.02329 14 5.37532 14H10.6238C10.9758 14 11.2599 13.7204 11.2599 13.3743V8.86536L15.9143 0.938547C16.1583 0.522067 15.8523 0 15.3622 0ZM9.82773 12.5922H6.1714V9.69832H9.82973V12.5922H9.82773ZM10.0197 8.16145L9.85173 8.44693H6.14539L5.97738 8.16145L4.44724 5.55307H11.5519L10.0197 8.16145ZM12.286 4.30168H3.71317L2.01301 1.40782H13.9861L12.286 4.30168Z" fill="white"/>
</svg>
