<svg width="12" height="14" viewBox="0 0 12 14" fill="none" xmlns="http://www.w3.org/2000/svg">
<path d="M11.9925 5.5125L10.3354 0.123647C10.3246 0.087588 10.303 0.0560925 10.2737 0.0338239C10.2443 0.0115553 10.2089 -0.000302665 10.1726 5.87189e-06H8.75689C8.6819 5.87189e-06 8.61788 0.0494624 8.5941 0.123647L6.92416 5.5125C6.91867 5.52962 6.91501 5.54865 6.91501 5.56767C6.91501 5.66468 6.99183 5.74457 7.08512 5.74457H8.11672C8.19354 5.74457 8.25938 5.69131 8.28133 5.61522L8.60142 4.44348H10.2293L10.5457 5.61332C10.5659 5.68941 10.6335 5.74267 10.7103 5.74267H11.8297C11.848 5.74267 11.8645 5.74076 11.881 5.73506C11.9249 5.71984 11.9596 5.68941 11.9816 5.64756C12.0017 5.60571 12.0053 5.55816 11.9925 5.5125ZM8.76787 3.45245L9.3678 1.22881H9.48304L10.0702 3.45245H8.76787ZM11.3926 12.8283H9.02211V12.8207L11.4475 9.22745C11.4676 9.19701 11.4786 9.16277 11.4786 9.12473V8.43234C11.4786 8.33533 11.4017 8.25544 11.3085 8.25544H7.57714C7.48386 8.25544 7.40703 8.33533 7.40703 8.43234V9.25027C7.40703 9.34728 7.48386 9.42718 7.57714 9.42718H9.81959V9.43478L7.38509 13.028C7.36476 13.0581 7.3539 13.0939 7.35399 13.1307V13.8231C7.35399 13.9201 7.43081 14 7.52409 14H11.3908C11.484 14 11.5609 13.9201 11.5609 13.8231V13.0052C11.5611 12.982 11.5569 12.9591 11.5486 12.9376C11.5402 12.9162 11.5279 12.8966 11.5122 12.8802C11.4966 12.8637 11.478 12.8507 11.4574 12.8418C11.4369 12.8328 11.4148 12.8283 11.3926 12.8283ZM4.24456 10.6141H2.85446V0.532614C2.85446 0.448919 2.78861 0.380441 2.70813 0.380441H1.68385C1.60337 0.380441 1.53752 0.448919 1.53752 0.532614V10.6141H0.147424C0.0248755 10.6141 -0.0446295 10.7625 0.0321917 10.8614L2.08076 13.5606C2.09445 13.5788 2.11194 13.5935 2.1319 13.6036C2.15187 13.6137 2.17378 13.619 2.19599 13.619C2.2182 13.619 2.24012 13.6137 2.26008 13.6036C2.28005 13.5935 2.29754 13.5788 2.31122 13.5606L4.35979 10.8614C4.43478 10.7625 4.36711 10.6141 4.24456 10.6141Z" fill="white"/>
</svg>
