<svg width="14" height="15" viewBox="0 0 14 15" fill="none" xmlns="http://www.w3.org/2000/svg">
<path d="M13.44 1.76H10.5V0.64C10.5 0.563 10.437 0.5 10.36 0.5H9.38C9.303 0.5 9.24 0.563 9.24 0.64V1.76H4.76V0.64C4.76 0.563 4.697 0.5 4.62 0.5H3.64C3.563 0.5 3.5 0.563 3.5 0.64V1.76H0.56C0.25025 1.76 0 2.01025 0 2.32V13.94C0 14.2498 0.25025 14.5 0.56 14.5H13.44C13.7498 14.5 14 14.2498 14 13.94V2.32C14 2.01025 13.7498 1.76 13.44 1.76ZM12.74 13.24H1.26V6.59H12.74V13.24ZM1.26 5.4V3.02H3.5V3.86C3.5 3.937 3.563 4 3.64 4H4.62C4.697 4 4.76 3.937 4.76 3.86V3.02H9.24V3.86C9.24 3.937 9.303 4 9.38 4H10.36C10.437 4 10.5 3.937 10.5 3.86V3.02H12.74V5.4H1.26Z" fill="black"/>
</svg>
