<svg width="99" height="56" viewBox="0 0 99 56" fill="none" xmlns="http://www.w3.org/2000/svg">
<path d="M0 31.1329C0 14.7841 13.4538 0 32.1129 0C49.0038 0 58.9229 10.9652 58.9229 24.8671C58.9229 41.2159 45.4691 56 26.8101 56C9.91919 56 0 45.0348 0 31.1329ZM37.9069 25.8465C37.9069 21.3434 35.0587 18.1115 30.7384 18.1115C25.1412 18.1115 21.016 23.7904 21.016 30.1535C21.016 34.6566 23.8643 37.8868 28.1846 37.8868C33.7818 37.8868 37.9069 32.208 37.9069 25.8449V25.8465Z" fill="#71D260"/>
<path d="M39.3608 31.1329C39.3608 14.7841 52.8146 0 71.4736 0C88.3645 0 98.2837 10.9652 98.2837 24.8671C98.2837 41.2159 84.8299 56 66.1709 56C49.28 56 39.3608 45.0348 39.3608 31.1329ZM77.2677 25.8465C77.2677 21.3434 74.4195 18.1115 70.0992 18.1115C64.5019 18.1115 60.3768 23.7904 60.3768 30.1535C60.3768 34.6566 63.225 37.8868 67.5453 37.8868C73.1426 37.8868 77.2677 32.208 77.2677 25.8449V25.8465Z" fill="#71D260"/>
</svg>
