<?xml version="1.0" encoding="UTF-8"?><svg id="Layer_1" xmlns="http://www.w3.org/2000/svg" viewBox="0 0 2349.96 720"><defs><style>.cls-1{fill:#2c3344;}.cls-2{fill:#0944ce;}</style></defs><path class="cls-1" d="M283.47,143h147.25c80.75,0,131.22,21.97,162.68,53.44,30.87,30.87,45.12,71.25,45.12,121.72,0,62.34-23.75,119.34-68.28,163.87-49.87,49.87-121.72,76.59-217.9,76.59H171.85l111.62-415.62Zm84.31,294.5c42.16,0,78.37-12.47,99.75-33.84,17.22-17.22,29.69-45.12,29.69-70.65,0-22.56-6.53-37.41-17.22-48.09-13.06-13.06-33.84-20.78-67.09-20.78h-23.16l-46.31,173.37h24.34Z"/><path class="cls-2" d="M646.24,415.53c0-99.15,81.34-188.81,194.15-188.81,102.12,0,162.09,66.5,162.09,150.81,0,99.15-81.34,188.81-194.15,188.81-102.12,0-162.09-66.5-162.09-150.81Zm229.18-32.06c0-27.31-17.22-46.91-43.34-46.91-33.84,0-58.78,34.44-58.78,73.03,0,27.31,17.22,46.9,43.34,46.9,33.84,0,58.78-34.44,58.78-73.03Z"/><path class="cls-2" d="M884.21,415.53c0-99.15,81.34-188.81,194.15-188.81,102.12,0,162.09,66.5,162.09,150.81,0,99.15-81.34,188.81-194.15,188.81-102.12,0-162.09-66.5-162.09-150.81Zm229.18-32.06c0-27.31-17.22-46.91-43.34-46.91-33.84,0-58.78,34.44-58.78,73.03,0,27.31,17.22,46.9,43.34,46.9,33.84,0,58.78-34.44,58.78-73.03Z"/><path class="cls-1" d="M1240.45,234.44h125.87l-1.78,130.62,74.81-131.81h107.47l4.16,133,69.47-131.81h130.03l-186.43,326.56h-111.03l-5.94-138.94-81.94,138.94h-114l-10.69-326.56Z"/><path class="cls-1" d="M1770.06,234.44l-86.68,324.18h42.01l128.9-135.1,50.56-189.08h-134.78Z"/><path class="cls-1" d="M1910.18,477.28c0-13.66,2.37-28.5,6.53-45.12l24.94-93.81h-38l27.91-103.91h29.81l30.16-109.25h134.78l-68.28,282.62c-2.97,10.69-4.16,18.41-4.16,24.94,0,13.66,8.31,20.78,27.31,20.78,10.69,0,20.19-1.78,39.19-7.12l-29.09,109.84c-23.16,5.94-45.72,9.5-68.28,9.5-76,0-112.81-29.09-112.81-88.47Z"/><polygon class="cls-1" points="1906.79 211.5 1774.35 211.5 1794.4 142.48 1929.79 142.48 1906.79 211.5"/></svg>