<svg width="167" height="38" viewBox="0 0 167 38" fill="none" xmlns="http://www.w3.org/2000/svg">
<path d="M9.53743 1.51709H22.1193C29.019 1.51709 33.3315 3.38852 36.0196 6.06916C38.6573 8.6987 39.8749 12.1383 39.8749 16.4374C39.8749 21.7476 37.8456 26.6029 34.0407 30.396C29.7795 34.644 23.6402 36.92 15.4221 36.92H0L9.53743 1.51709ZM16.7414 26.6029C20.3437 26.6029 23.4377 25.5407 25.2645 23.7204C26.7359 22.2535 27.8014 19.877 27.8014 17.7023C27.8014 15.7806 27.2435 14.5157 26.3301 13.606C25.2141 12.4935 23.4386 11.8359 20.5975 11.8359H18.6186L14.6616 26.6037H16.7414V26.6029Z" fill="white"/>
<path d="M40.1318 23.8505C40.1318 15.4048 47.0819 7.76746 56.721 7.76746C65.4467 7.76746 70.5709 13.432 70.5709 20.6136C70.5709 29.0593 63.6208 36.6966 53.9817 36.6966C45.2559 36.6966 40.1318 31.0321 40.1318 23.8505ZM59.7142 21.1196C59.7142 18.7933 58.2428 17.1237 56.011 17.1237C53.1195 17.1237 50.9885 20.0574 50.9885 23.3445C50.9885 25.6708 52.4599 27.3395 54.6917 27.3395C57.5832 27.3395 59.7142 24.4059 59.7142 21.1187V21.1196Z" fill="#71D260"/>
<path d="M60.4652 23.8505C60.4652 15.4048 67.4154 7.76746 77.0545 7.76746C85.7802 7.76746 90.9044 13.432 90.9044 20.6136C90.9044 29.0593 83.9542 36.6966 74.3151 36.6966C65.5894 36.6966 60.4652 31.0321 60.4652 23.8505ZM80.0477 21.1196C80.0477 18.7933 78.5763 17.1237 76.3444 17.1237C73.453 17.1237 71.322 20.0574 71.322 23.3445C71.322 25.6708 72.7933 27.3395 75.0252 27.3395C77.9166 27.3395 80.0477 24.4059 80.0477 21.1187V21.1196Z" fill="#71D260"/>
<path d="M91.3072 9.30608H102.062L101.91 20.4324L108.302 9.20471H117.485L117.841 20.5338L123.777 9.30608H134.887L118.957 37.1228H109.47L108.963 25.2877L101.961 37.1228H92.2206L91.3072 9.30608Z" fill="white"/>
<path d="M136.56 9.30603L129.154 36.92H132.743L143.757 25.412L148.077 9.30603H136.56Z" fill="white"/>
<path d="M148.533 29.9914C148.533 28.8278 148.735 27.5637 149.091 26.148L151.222 18.1572H147.975L150.359 9.30602H152.907L155.484 0H167L161.166 24.0738C160.912 24.9844 160.81 25.642 160.81 26.1983C160.81 27.3618 161.52 27.9683 163.144 27.9683C164.057 27.9683 164.869 27.8167 166.492 27.3618L164.007 36.7181C162.028 37.2241 160.1 37.5273 158.173 37.5273C151.679 37.5273 148.533 35.0494 148.533 29.9914H148.533Z" fill="white"/>
<path d="M148.243 7.35197H136.927L138.64 1.47278H150.208L148.243 7.35197Z" fill="white"/>
</svg>
