<svg width="14" height="14" viewBox="0 0 14 14" fill="none" xmlns="http://www.w3.org/2000/svg">
<path d="M7.00078 6.01615e-07C3.13283 -0.00160601 0 3.21483 0 7.18476C0 10.3241 1.95978 12.9927 4.68909 13.9727C5.05664 14.0675 5.00034 13.7992 5.00034 13.616V12.3709C2.87789 12.6263 2.79187 11.1836 2.64954 10.9426C2.36175 10.4381 1.68138 10.3096 1.88471 10.0686C2.368 9.81317 2.86069 10.1329 3.43157 10.9989C3.84449 11.627 4.64998 11.521 5.05821 11.4166C5.14736 11.039 5.33817 10.7016 5.60094 10.4398C3.40185 10.0349 2.48531 8.65641 2.48531 7.01767C2.48531 6.2224 2.74025 5.49139 3.24076 4.90177C2.92168 3.92977 3.27047 3.09754 3.31739 2.97384C4.22612 2.89029 5.17082 3.64219 5.24433 3.70163C5.76047 3.55864 6.35013 3.48313 7.01017 3.48313C7.67333 3.48313 8.26455 3.56185 8.78539 3.70645C8.96213 3.56828 9.83801 2.92242 10.6826 3.00115C10.728 3.12486 11.0689 3.9378 10.7686 4.89695C11.2754 5.48818 11.5335 6.22562 11.5335 7.02249C11.5335 8.66445 10.6107 10.0445 8.40532 10.443C8.59421 10.6338 8.74419 10.8613 8.84651 11.1124C8.94883 11.3634 9.00142 11.6328 9.00123 11.905V13.7124C9.01374 13.857 9.00123 14 9.23584 14C12.0058 13.0409 14 10.353 14 7.18637C14 3.21483 10.8656 6.01615e-07 7.00078 6.01615e-07Z" fill="white"/>
</svg>
