<svg width="14" height="14" viewBox="0 0 14 14" fill="none" xmlns="http://www.w3.org/2000/svg">
<path d="M12.5335 10.5814H11.4125C11.336 10.5814 11.2642 10.6156 11.2164 10.6758C11.1048 10.8142 10.9852 10.9477 10.8592 11.0747C10.344 11.6012 9.73375 12.0208 9.06217 12.3102C8.3664 12.6103 7.61858 12.7642 6.86329 12.7628C6.0995 12.7628 5.35963 12.6098 4.66441 12.3102C3.99283 12.0208 3.38256 11.6012 2.86735 11.0747C2.35122 10.5499 1.93967 9.92798 1.6555 9.24326C1.3605 8.5335 1.21221 7.77978 1.21221 7.00001C1.21221 6.22025 1.3621 5.46653 1.6555 4.75676C1.93933 4.07141 2.34753 3.45444 2.86735 2.92537C3.38717 2.3963 3.99151 1.97956 4.66441 1.68979C5.35963 1.39025 6.0995 1.23723 6.86329 1.23723C7.62708 1.23723 8.36695 1.38863 9.06217 1.68979C9.73507 1.97956 10.3394 2.3963 10.8592 2.92537C10.9852 3.05397 11.1032 3.18746 11.2164 3.32421C11.2642 3.38444 11.3376 3.41862 11.4125 3.41862H12.5335C12.634 3.41862 12.6961 3.30467 12.6403 3.21839C11.4173 1.27793 9.27744 -0.00648697 6.84575 2.46443e-05C3.02521 0.00979207 -0.0379144 3.17607 0.000354714 7.07164C0.0386239 10.9054 3.09697 14 6.86329 14C9.2886 14 11.4189 12.7172 12.6403 10.7816C12.6946 10.6954 12.634 10.5814 12.5335 10.5814ZM13.9511 6.89746L11.6884 5.0742C11.6039 5.00583 11.4811 5.06769 11.4811 5.17676V6.41397H6.47422C6.40406 6.41397 6.34666 6.47257 6.34666 6.5442V7.45583C6.34666 7.52745 6.40406 7.58606 6.47422 7.58606H11.4811V8.82327C11.4811 8.93233 11.6055 8.99419 11.6884 8.92582L13.9511 7.10257C13.9663 7.09039 13.9786 7.07482 13.9871 7.05705C13.9956 7.03929 14 7.01978 14 7.00001C14 6.98025 13.9956 6.96074 13.9871 6.94297C13.9786 6.9252 13.9663 6.90964 13.9511 6.89746Z" fill="white"/>
</svg>
